<?xml version="1.0" encoding="UTF-8" standalone="no"?>
<!-- Created with Inkscape (http://www.inkscape.org/) -->

<svg
   version="1.1"
   id="svg1"
   width="960"
   height="855"
   viewBox="0 0 960 855"
   xmlns="http://www.w3.org/2000/svg"
   xmlns:svg="http://www.w3.org/2000/svg">
  <defs
     id="defs1" />
  <g
     id="g1">
    <path
       style="fill:#61dafb;fill-opacity:1"
       d="m 275.87375,854.03071 c -43.434,-5.51586 -73.85809,-36.58695 -85.70803,-87.53071 -4.01838,-17.2753 -5.51117,-32.64072 -5.48912,-56.5 0.03,-32.44971 4.13598,-66.37119 12.34648,-102 4.27919,-18.56925 4.5969,-21 2.74474,-21 -0.82253,0 -9.99428,-2.74472 -20.38167,-6.09938 C 69.328029,545.35678 6.4470567,493.97719 1.0321382,435.16886 -3.4935849,386.01756 32.390548,339.87262 103,304.04403 128.04584,291.3353 159.40512,278.95148 188.46184,270.29505 196.15965,268.00176 201,266.05834 201,265.26094 c 0,-0.71434 -1.55814,-8.15278 -3.46252,-16.52987 C 183.29473,186.07955 180.65662,128.3803 190.16572,87.5 201.44992,38.98836 230.35212,7.9180664 270.73626,0.88547361 279.38593,-0.62080092 307.33628,0.33308375 317,2.4643543 361.23054,12.219111 412.83687,43.64196 468,94.407539 c 6.325,5.820781 11.725,10.583231 12,10.583231 0.275,0 5.675,-4.7745 12,-10.609991 52.82242,-48.734382 101.80678,-79.165877 145.80137,-90.5789822 10.01434,-2.5979279 14.09202,-3.10801719 28.3225,-3.54295116 17.61646,-0.53842142 24.89381,0.23453938 35.96429,3.81993136 23.44911,7.594458 42.42252,24.152238 54.68035,47.718624 13.12309,25.22992 18.5691,52.322109 18.53434,92.202599 -0.0288,32.98472 -4.12456,66.39184 -12.84033,104.73107 C 760.55814,257.10816 759,264.60991 759,265.40162 c 0,0.81795 1.40324,1.73288 3.25,2.11904 1.7875,0.37376 13.15,3.97112 25.25,7.99412 101.02077,33.58739 160.4988,80.94216 170.57199,135.80473 1.62378,8.84378 1.35298,24.87264 -0.57654,34.12512 -5.22185,25.03999 -22.65071,50.64403 -48.84294,71.75321 -30.32982,24.4438 -74.45704,46.39832 -128.03866,63.70278 C 770.22646,584.25528 761.05471,587 760.23218,587 c -1.8503,0 -1.53438,2.42604 2.72563,20.93041 16.07131,69.80958 16.72209,133.58853 1.79656,176.06959 -13.23689,37.67485 -37.52773,60.73786 -72.25437,68.60209 -11.25791,2.54948 -32.48883,2.36686 -46.13868,-0.39687 C 617.27429,846.31588 584.15228,830.85326 551,807.68691 530.75462,793.53971 513.51648,779.43307 488.55844,756.58853 l -8.6434,-7.91146 -3.70752,3.45978 c -43.93848,41.00255 -77.5211,65.51364 -113.72357,83.00393 -31.11005,15.03002 -62.71885,21.92399 -86.6102,18.88993 z m 36.35877,-43.43778 c 35.17102,-8.92187 75.73947,-33.91609 121.26748,-74.71289 7.15,-6.40698 14.0788,-12.8131 15.39733,-14.23583 l 2.39734,-2.58677 -5.89734,-6.61905 C 421.662,685.79834 400.55668,659.80728 381.7036,634 c -5.42421,-7.425 -10.43736,-14.09477 -11.14033,-14.82171 -0.81434,-0.84211 -9.2221,-2.21146 -23.17069,-3.77375 -32.33844,-3.62202 -70.71858,-9.93859 -103.53455,-17.03963 -2.61859,-0.56664 -2.66444,-0.47565 -5.18122,10.2817 -25.35657,108.38067 -14.15976,185.34237 29.35147,201.74836 11.21076,4.22703 28.02432,4.30233 44.20424,0.19796 z m 377.79096,0.39916 c 45.19127,-15.22384 57.0867,-92.1251 31.29971,-202.34548 -2.516,-10.75404 -2.56343,-10.84822 -5.18122,-10.28769 -38.03798,8.14479 -67.83013,13.0336 -104.14197,17.08941 -21.17688,2.36532 -21.53341,2.44387 -23.72315,5.22654 -1.22273,1.55382 -7.86874,10.41358 -14.76891,19.68835 -16.92473,22.74916 -32.28373,41.78828 -49.97754,61.9525 l -14.75555,16.81571 2.36257,2.54978 c 4.2293,4.5644 28.11366,25.64834 38.36258,33.86459 40.90865,32.79523 78.70669,52.70467 109,57.41379 9.16257,1.42432 24.25035,0.48264 31.52348,-1.9675 z m -198.32592,-134.247 c 15.81418,-17.94051 44.29886,-53.1227 44.30419,-54.72128 9.6e-4,-0.2881 -12.59904,-0.12957 -28,0.35228 -16.0276,0.50146 -39.9759,0.50146 -56.0035,0 -15.40096,-0.48185 -28.00096,-0.64038 -28,-0.35228 C 424.00733,624.74803 477.73124,689 480,689 c 0.49231,0 5.75621,-5.51471 11.69756,-12.25491 z M 525,581.01351 c 11.825,-0.50936 26.15475,-1.23501 31.84388,-1.61257 l 10.34389,-0.68646 3.18464,-4.38837 c 4.84408,-6.67504 22.35816,-34.07537 32.08649,-50.19849 16.33526,-27.07305 29.53739,-51.02141 43.48294,-78.87706 l 9.13634,-18.24943 -11.50421,-22.75057 C 624.37043,366.27392 600.1938,324.63812 577.81285,291 L 567.5,275.5 l -8,-0.63814 c -4.4,-0.35098 -24.0875,-1.22227 -43.75,-1.93619 -29.30566,-1.06405 -42.19434,-1.06405 -71.5,0 -19.6625,0.71392 -39.35,1.58521 -43.75,1.93619 l -8,0.63814 -10.31285,15.5 c -22.38095,33.63812 -46.55758,75.27392 -65.76112,113.25056 l -11.50421,22.75057 9.13634,18.24943 c 13.94555,27.85565 27.14768,51.80401 43.48294,78.87706 9.7453,16.15124 27.24497,43.52698 32.10668,50.22632 l 3.20484,4.4162 12.32369,0.75827 c 39.11379,2.40666 85.17575,2.97755 119.82369,1.4851 z M 467,511.36878 C 445.73455,507.27186 426.66907,496.27041 414.0183,480.79647 408.08808,473.54284 399.91307,457.46168 397.34591,448 c -2.48483,-9.15825 -2.47351,-32.91284 0.02,-42 6.66581,-24.2922 23.65186,-44.74367 46.07902,-55.47985 11.23844,-5.38 19.27739,-7.45949 31.7671,-8.21742 34.35464,-2.0848 66.63386,17.03257 81.37994,48.19727 6.5952,13.93845 7.8257,19.67767 7.8257,36.5 0,17.22403 -1.25452,22.8293 -8.39295,37.5 -8.26316,16.98221 -20.25508,29.26384 -37.06339,37.9588 -12.81044,6.62685 -21.04269,8.67308 -36.46134,9.06292 -7.15,0.18079 -14.125,0.11196 -15.5,-0.15294 z m -128,61.03723 c 0,-0.32669 -4.2232,-7.41419 -9.38488,-15.75 -12.86913,-20.78286 -25.79018,-43.10568 -35.97758,-62.15601 -4.70591,-8.8 -8.97795,-16.675 -9.49343,-17.5 -0.73056,-1.16923 -1.42467,-0.39743 -3.14771,3.5 C 274.0368,496.24228 253,554.03369 253,557.41053 c 0,1.35817 21.04402,5.8465 49.5,10.55751 28.20404,4.6693 36.5,5.67799 36.5,4.43797 z m 309.5,-2.97221 c 27.55143,-4.20177 58.5,-10.52126 58.5,-11.94532 0,-3.44279 -20.94137,-61.03034 -27.9964,-76.98848 -1.72304,-3.89743 -2.41715,-4.66923 -3.14771,-3.5 -0.51548,0.825 -4.78871,8.7 -9.49608,17.5 -10.39819,19.43851 -24.69679,44.13828 -36.54492,63.12864 C 624.9667,565.3994 621,572.08875 621,572.49387 c 0,0.88067 6.14056,0.19737 27.5,-3.06007 z M 219.79859,527.25 c 9.07601,-26.74781 18.95626,-52.22434 29.85477,-76.98148 5.54979,-12.60694 8.69925,-21.03647 8.69363,-23.26852 -0.006,-2.21306 -3.35505,-11.10877 -9.10934,-24.19297 -11.15717,-25.36937 -20.26306,-48.87132 -29.34017,-75.72584 -3.79597,-11.23034 -7.08775,-20.60479 -7.31506,-20.8321 -0.75824,-0.75824 -27.86609,7.82363 -45.34743,14.3562 -66.59688,24.88646 -108.902469,55.23839 -121.922477,87.47269 -8.71409,21.57391 -2.904632,42.34088 18.063489,64.57123 21.63769,22.94024 55.762918,42.88277 104.674188,61.17083 13.12402,4.9071 41.32602,14.05716 43.57868,14.13896 0.62088,0.0226 4.29725,-9.2965 8.16972,-20.709 z M 772.5,540.52277 c 57.55792,-18.91742 99.66551,-41.94272 124.124,-67.87356 12.83787,-13.61068 19.40924,-25.58842 21.53708,-39.25598 2.48779,-15.97956 -4.61303,-33.8917 -20.02303,-50.50899 C 876.56849,359.62481 842.05003,339.10875 793.85453,320.90327 782.06832,316.45112 749.83717,306 747.893,306 c -0.39985,0 -3.07105,7.0875 -5.93599,15.75 -9.64375,29.15905 -26.38976,71.74994 -39.78559,101.18852 -1.9679,4.32465 -1.9732,4.52989 -0.20669,8 8.37502,16.4517 30.69822,73.1295 40.51597,102.86854 l 4.72318,14.30707 3.14806,-0.67334 C 752.08337,547.07046 762.05,543.95735 772.5,540.52277 Z M 290.55632,365.25 c 11.81961,-22.39743 40.38944,-71.26119 47.73112,-81.63581 l 2.04216,-2.88582 -5.9148,0.69887 c -25.59745,3.02448 -80.31546,13.15031 -81.02282,14.99366 -1.08525,2.82812 27.88375,81.5791 30.00935,81.5791 0.2346,0 3.45434,-5.7375 7.15499,-12.75 z m 388.96552,7.10471 C 686.44609,356.69773 707,299.98656 707,296.53852 c 0,-1.82081 -54.75862,-11.98874 -81.38929,-15.11288 l -5.88929,-0.69089 2.98653,4.38262 c 8.59341,12.61054 34.96051,57.81932 46.73573,80.13263 3.70065,7.0125 6.92039,12.75 7.15499,12.75 0.2346,0 1.55003,-2.54038 2.92317,-5.64529 z M 256.84563,252.99809 c 28.31945,-6.00298 78.14949,-13.55006 103.14515,-15.62199 10.16629,-0.8427 9.06275,0.10058 24.47448,-20.92012 13.92909,-18.99847 35.00302,-45.26429 49.64587,-61.8769 6.26388,-7.1065 12.72282,-14.49626 14.3532,-16.42169 l 2.96434,-3.50079 -7.96434,-7.41325 C 403.70169,90.232037 365.66431,63.733097 333.5,50.636124 287.07463,31.732192 255.02835,38.971116 238.73567,72.042405 229.00995,91.783921 225.56355,110.68492 225.61495,144 c 0.0358,23.17901 1.57199,41.12321 5.47591,63.96222 C 234.72315,229.21214 240.76488,256 241.9253,256 c 0.41726,0 7.13141,-1.35086 14.92033,-3.00191 z M 720.87312,247.25 c 9.88056,-42.38486 13.47526,-69.87437 13.50162,-103.25 0.013,-16.42053 -0.45047,-25.54372 -1.71518,-33.76475 -5.85197,-38.03988 -20.61055,-60.508925 -44.37604,-67.559871 -33.90286,-10.058586 -88.92823,13.457773 -147.52539,63.048371 -13.93576,11.79379 -31.87123,28.44617 -31.55145,29.29429 0.16133,0.42786 6.52404,7.89872 14.13936,16.60192 20.794,23.7645 39.23162,46.92958 60.97476,76.60885 3.45845,4.72077 6.54117,7.90708 7.92068,8.18686 1.24218,0.25193 9.23352,1.17941 17.75852,2.06106 29.31315,3.03157 75.5881,10.37833 97.5,15.47942 11.97141,2.78695 11.05275,3.24763 13.37312,-6.70615 z M 459,231.58676 c 15.675,-0.27918 39.3,-0.16779 52.5,0.24753 13.2,0.41532 24.18155,0.62846 24.40343,0.47365 C 537.43874,231.23676 482.42498,165 480,165 c -2.33419,0 -56,64.4675 -56,67.27151 0,0.45051 1.4625,0.59495 3.25,0.32098 1.7875,-0.27398 16.075,-0.72656 31.75,-1.00573 z"
       id="path1" />
  </g>
</svg>
